<svg width="40" height="40" viewBox="0 0 40 40" fill="none" xmlns="http://www.w3.org/2000/svg">
<g id="ph:scroll-light">
<path id="Vector" d="M15.3125 21.25C15.3125 21.0014 15.4113 20.7629 15.5871 20.5871C15.7629 20.4113 16.0014 20.3125 16.25 20.3125H26.25C26.4986 20.3125 26.7371 20.4113 26.9129 20.5871C27.0887 20.7629 27.1875 21.0014 27.1875 21.25C27.1875 21.4986 27.0887 21.7371 26.9129 21.9129C26.7371 22.0887 26.4986 22.1875 26.25 22.1875H16.25C16.0014 22.1875 15.7629 22.0887 15.5871 21.9129C15.4113 21.7371 15.3125 21.4986 15.3125 21.25ZM16.25 17.1875H26.25C26.4986 17.1875 26.7371 17.0887 26.9129 16.9129C27.0887 16.7371 27.1875 16.4986 27.1875 16.25C27.1875 16.0014 27.0887 15.7629 26.9129 15.5871C26.7371 15.4113 26.4986 15.3125 26.25 15.3125H16.25C16.0014 15.3125 15.7629 15.4113 15.5871 15.5871C15.4113 15.7629 15.3125 16.0014 15.3125 16.25C15.3125 16.4986 15.4113 16.7371 15.5871 16.9129C15.7629 17.0887 16.0014 17.1875 16.25 17.1875ZM35.9375 30C35.9375 31.2432 35.4436 32.4355 34.5646 33.3146C33.6855 34.1936 32.4932 34.6875 31.25 34.6875H13.75C12.5068 34.6875 11.3145 34.1936 10.4354 33.3146C9.55636 32.4355 9.0625 31.2432 9.0625 30V10C9.0625 9.25408 8.76618 8.53871 8.23874 8.01126C7.71129 7.48382 6.99592 7.1875 6.25 7.1875C5.50408 7.1875 4.78871 7.48382 4.26126 8.01126C3.73382 8.53871 3.4375 9.25408 3.4375 10C3.4375 11.0563 4.30937 11.7484 4.31875 11.7547C4.41693 11.829 4.49953 11.9219 4.56181 12.0281C4.62409 12.1343 4.66485 12.2517 4.68176 12.3736C4.69866 12.4956 4.69138 12.6197 4.66032 12.7388C4.62927 12.8579 4.57506 12.9698 4.50078 13.068C4.4265 13.1662 4.33361 13.2487 4.22741 13.311C4.12122 13.3733 4.00379 13.4141 3.88184 13.431C3.75989 13.4479 3.63581 13.4406 3.51667 13.4095C3.39754 13.3785 3.28568 13.3243 3.1875 13.25C3.125 13.2 1.5625 12.0078 1.5625 10C1.5625 8.7568 2.05636 7.56451 2.93544 6.68544C3.81451 5.80636 5.0068 5.3125 6.25 5.3125H27.5C28.7432 5.3125 29.9355 5.80636 30.8146 6.68544C31.6936 7.56451 32.1875 8.7568 32.1875 10V26.5625H33.75C33.9528 26.5625 34.1502 26.6283 34.3125 26.75C34.375 26.8 35.9375 27.9922 35.9375 30ZM16.5625 30C16.5625 28.9438 15.6891 28.2516 15.6812 28.2453C15.5253 28.1264 15.4107 27.9615 15.3534 27.774C15.2961 27.5864 15.299 27.3856 15.3618 27.1998C15.4246 27.014 15.5441 26.8526 15.7034 26.7383C15.8627 26.624 16.0539 26.5625 16.25 26.5625H30.3125V10C30.3125 9.25408 30.0162 8.53871 29.4887 8.01126C28.9613 7.48382 28.2459 7.1875 27.5 7.1875H10C10.6104 7.99793 10.9395 8.98543 10.9375 10V30C10.9375 30.7459 11.2338 31.4613 11.7613 31.9887C12.2887 32.5162 13.0041 32.8125 13.75 32.8125C14.4959 32.8125 15.2113 32.5162 15.7387 31.9887C16.2662 31.4613 16.5625 30.7459 16.5625 30ZM34.0625 30C34.0413 29.4123 33.7991 28.8543 33.3844 28.4375H18.1062C18.3238 28.9297 18.4366 29.4618 18.4375 30C18.439 31.0145 18.1099 32.0018 17.5 32.8125H31.25C31.9959 32.8125 32.7113 32.5162 33.2387 31.9887C33.7662 31.4613 34.0625 30.7459 34.0625 30Z" fill="#000A66"/>
</g>
</svg>
