<svg width="40" height="40" viewBox="0 0 40 40" fill="none" xmlns="http://www.w3.org/2000/svg">
<g id="ph:signpost-light">
<path id="Vector" d="M38.1969 16.875L32.5719 10.625C32.4842 10.5269 32.3768 10.4484 32.2567 10.3946C32.1366 10.3407 32.0066 10.3128 31.875 10.3125H20.9375V5C20.9375 4.75136 20.8387 4.5129 20.6629 4.33709C20.4871 4.16127 20.2486 4.0625 20 4.0625C19.7514 4.0625 19.5129 4.16127 19.3371 4.33709C19.1613 4.5129 19.0625 4.75136 19.0625 5V10.3125H6.25C5.66984 10.3125 5.11344 10.543 4.7032 10.9532C4.29297 11.3634 4.0625 11.9198 4.0625 12.5V22.5C4.0625 23.0802 4.29297 23.6366 4.7032 24.0468C5.11344 24.457 5.66984 24.6875 6.25 24.6875H19.0625V35C19.0625 35.2486 19.1613 35.4871 19.3371 35.6629C19.5129 35.8387 19.7514 35.9375 20 35.9375C20.2486 35.9375 20.4871 35.8387 20.6629 35.6629C20.8387 35.4871 20.9375 35.2486 20.9375 35V24.6875H31.875C32.0066 24.6872 32.1366 24.6593 32.2567 24.6054C32.3768 24.5516 32.4842 24.4731 32.5719 24.375L38.1969 18.125C38.3506 17.9531 38.4356 17.7306 38.4356 17.5C38.4356 17.2694 38.3506 17.0469 38.1969 16.875ZM31.4578 22.8125H6.25C6.16712 22.8125 6.08763 22.7796 6.02903 22.721C5.97042 22.6624 5.9375 22.5829 5.9375 22.5V12.5C5.9375 12.4171 5.97042 12.3376 6.02903 12.279C6.08763 12.2204 6.16712 12.1875 6.25 12.1875H31.4578L36.2391 17.5L31.4578 22.8125Z" fill="#000A66"/>
</g>
</svg>
