<svg width="40" height="40" viewBox="0 0 40 40" fill="none" xmlns="http://www.w3.org/2000/svg">
<g id="ph:student-light">
<path id="Vector" d="M35.2969 9.11093L20.2969 4.11093C20.1042 4.0466 19.8958 4.0466 19.7031 4.11093L4.70313 9.11093C4.51659 9.17321 4.35436 9.29256 4.23939 9.45212C4.12442 9.61167 4.06254 9.80333 4.0625 9.99999V22.5C4.0625 22.7486 4.16127 22.9871 4.33709 23.1629C4.5129 23.3387 4.75136 23.4375 5 23.4375C5.24864 23.4375 5.4871 23.3387 5.66291 23.1629C5.83873 22.9871 5.9375 22.7486 5.9375 22.5V11.3L11.9812 13.3156C11.2191 14.442 10.7026 15.7161 10.4655 17.0553C10.2283 18.3944 10.2758 19.7685 10.6048 21.088C10.9337 22.4076 11.5368 23.6431 12.3749 24.7142C13.2129 25.7853 14.2671 26.6679 15.4688 27.3047C12.4609 28.325 9.84375 30.3656 7.96875 33.2422C7.86097 33.4486 7.83388 33.6878 7.89275 33.9131C7.95162 34.1384 8.09223 34.3337 8.28722 34.461C8.4822 34.5884 8.71759 34.6386 8.94755 34.6019C9.17751 34.5652 9.38559 34.4442 9.53125 34.2625C11.9484 30.5609 15.7625 28.4375 20 28.4375C24.2375 28.4375 28.0516 30.5609 30.4688 34.2625C30.6135 34.448 30.8228 34.5723 31.055 34.6107C31.2872 34.6491 31.5253 34.5988 31.7221 34.4697C31.9189 34.3406 32.0599 34.1422 32.1172 33.9139C32.1745 33.6857 32.1438 33.4442 32.0312 33.2375C30.1562 30.3656 27.5422 28.325 24.5312 27.3C25.7323 26.6625 26.7857 25.7794 27.6229 24.708C28.4602 23.6366 29.0625 22.401 29.3907 21.0814C29.719 19.7619 29.7657 18.3881 29.528 17.0493C29.2903 15.7105 28.7734 14.4368 28.0109 13.3109L35.2969 10.8891C35.4833 10.8267 35.6454 10.7073 35.7603 10.5477C35.8751 10.3882 35.9369 10.1966 35.9369 9.99999C35.9369 9.8034 35.8751 9.61179 35.7603 9.45225C35.6454 9.2927 35.4833 9.1733 35.2969 9.11093ZM27.8125 18.75C27.8131 19.9949 27.5161 21.2219 26.9464 22.3288C26.3767 23.4356 25.5507 24.3903 24.5373 25.1133C23.5239 25.8363 22.3523 26.3067 21.1203 26.4852C19.8883 26.6637 18.6314 26.5452 17.4545 26.1396C16.2775 25.734 15.2145 25.053 14.3541 24.1533C13.4936 23.2537 12.8606 22.1614 12.5078 20.9676C12.155 19.7737 12.0926 18.5129 12.3258 17.29C12.559 16.0671 13.081 14.9177 13.8484 13.9375L19.7031 15.8891C19.8958 15.9534 20.1042 15.9534 20.2969 15.8891L26.1516 13.9375C27.2294 15.3099 27.8144 17.0049 27.8125 18.75ZM20 14.0125L7.96875 9.99999L20 5.98749L32.0312 9.99999L20 14.0125Z" fill="white"/>
</g>
</svg>
