<svg width="40" height="40" viewBox="0 0 40 40" fill="none" xmlns="http://www.w3.org/2000/svg">
<g id="ph:code-light">
<path id="Vector" d="M10.6 14.4703L3.96402 20L10.6 25.5297C10.6957 25.6081 10.7749 25.7047 10.8331 25.8139C10.8913 25.9231 10.9273 26.0428 10.939 26.166C10.9507 26.2892 10.9379 26.4134 10.9014 26.5317C10.8648 26.6499 10.8052 26.7597 10.726 26.8548C10.6468 26.9499 10.5496 27.0283 10.4399 27.0856C10.3303 27.143 10.2103 27.178 10.0871 27.1887C9.96378 27.1995 9.83959 27.1857 9.72167 27.1482C9.60374 27.1107 9.4944 27.0502 9.39995 26.9703L1.89995 20.7203C1.79434 20.6323 1.70936 20.5222 1.65104 20.3977C1.59273 20.2732 1.5625 20.1374 1.5625 20C1.5625 19.8625 1.59273 19.7267 1.65104 19.6023C1.70936 19.4778 1.79434 19.3676 1.89995 19.2797L9.39995 13.0297C9.59126 12.8729 9.83677 12.7981 10.083 12.8215C10.3292 12.8449 10.5562 12.9647 10.7145 13.1548C10.8728 13.3448 10.9496 13.5897 10.9282 13.8361C10.9067 14.0825 10.7887 14.3105 10.6 14.4703ZM38.1 19.2797L30.6 13.0297C30.5055 12.9497 30.3962 12.8892 30.2782 12.8517C30.1603 12.8143 30.0361 12.8005 29.9129 12.8112C29.7896 12.822 29.6696 12.857 29.56 12.9143C29.4503 12.9716 29.3531 13.0501 29.2739 13.1452C29.1947 13.2402 29.1351 13.3501 29.0985 13.4683C29.062 13.5865 29.0492 13.7108 29.0609 13.834C29.0726 13.9572 29.1086 14.0768 29.1668 14.186C29.225 14.2952 29.3042 14.3918 29.4 14.4703L36.0359 20L29.4 25.5297C29.3042 25.6081 29.225 25.7047 29.1668 25.8139C29.1086 25.9231 29.0726 26.0428 29.0609 26.166C29.0492 26.2892 29.062 26.4134 29.0985 26.5317C29.1351 26.6499 29.1947 26.7597 29.2739 26.8548C29.3531 26.9499 29.4503 27.0283 29.56 27.0856C29.6696 27.143 29.7896 27.178 29.9129 27.1887C30.0361 27.1995 30.1603 27.1857 30.2782 27.1482C30.3962 27.1107 30.5055 27.0502 30.6 26.9703L38.1 20.7203C38.2056 20.6323 38.2905 20.5222 38.3489 20.3977C38.4072 20.2732 38.4374 20.1374 38.4374 20C38.4374 19.8625 38.4072 19.7267 38.3489 19.6023C38.2905 19.4778 38.2056 19.3676 38.1 19.2797ZM25.3203 5.37341C25.2043 5.3314 25.0813 5.31267 24.9581 5.3183C24.8349 5.32392 24.7141 5.35378 24.6025 5.40618C24.4909 5.45857 24.3907 5.53247 24.3077 5.62364C24.2247 5.71481 24.1604 5.82145 24.1187 5.93747L14.1187 33.4375C14.0365 33.6712 14.0502 33.928 14.1568 34.1517C14.2633 34.3754 14.4541 34.5478 14.6875 34.6312C14.7878 34.6672 14.8934 34.6862 15 34.6875C15.1924 34.6875 15.3803 34.6283 15.5379 34.5179C15.6956 34.4075 15.8154 34.2512 15.8812 34.0703L25.8812 6.57029C25.9233 6.45456 25.9422 6.33168 25.9367 6.20866C25.9313 6.08563 25.9017 5.96488 25.8496 5.8533C25.7976 5.74172 25.724 5.6415 25.6332 5.55835C25.5423 5.47521 25.436 5.41077 25.3203 5.36872V5.37341Z" fill="#000A66"/>
</g>
</svg>
